<svg width="1060" height="768" viewBox="0 0 1060 768" xmlns="http://www.w3.org/2000/svg"><rect x="0" y="0" width="1060" height="768" fill="#0a0a1a"/><polygon points="506,342.43078061834694 482,384 434,384 410,342.43078061834694 434,300.8615612366939 482,300.8615612366939" fill="#0d1b35" stroke="#1a4080" stroke-width="1.5"/><polygon points="506,425.56921938165306 482,467.1384387633061 434,467.1384387633061 410,425.56921938165306 434,384 482,384" fill="#16213e" stroke="#0f3460" stroke-width="1.5"/><polygon points="578,300.8615612366939 554,342.43078061834694 506,342.43078061834694 482,300.8615612366939 506,259.29234185504083 554,259.29234185504083" fill="#0d1b35" stroke="#1a4080" stroke-width="1.5"/><polygon points="578,384 554,425.56921938165306 506,425.56921938165306 482,384 506,342.43078061834694 554,342.43078061834694" fill="#0d1b35" stroke="#1a4080" stroke-width="1.5"/><polygon points="578,467.1384387633061 554,508.70765814495917 506,508.70765814495917 482,467.1384387633061 506,425.56921938165306 554,425.56921938165306" fill="#16213e" stroke="#0f3460" stroke-width="1.5"/><polygon points="650,342.43078061834694 626,384 578,384 554,342.43078061834694 578,300.8615612366939 626,300.8615612366939" fill="#0d1b35" stroke="#1a4080" stroke-width="1.5"/><polygon points="650,425.56921938165306 626,467.1384387633061 578,467.1384387633061 554,425.56921938165306 578,384 626,384" fill="#0d1b35" stroke="#1a4080" stroke-width="1.5"/><path d="M500,352.8230854637602 Q458,342.43078061834694 500,332.0384757729337" stroke="#ff6b6b" stroke-width="2.5" fill="none" stroke-linecap="round"/><path d="M500,332.0384757729337 Q530,300.8615612366939 542,259.29234185504083" stroke="#ff6b6b" stroke-width="2.5" fill="none" stroke-linecap="round"/><path d="M500,352.8230854637602 Q530,384 488,373.60769515458674" stroke="#ff6b6b" stroke-width="2.5" fill="none" stroke-linecap="round"/><path d="M488,373.60769515458674 Q458,342.43078061834694 416,352.8230854637602" stroke="#ff6b6b" stroke-width="2.5" fill="none" stroke-linecap="round"/><path d="M470,384 Q458,342.43078061834694 428,311.25386608210715" stroke="#ffd700" stroke-width="2.5" fill="none" stroke-linecap="round"/><path d="M446,384 Q458,342.43078061834694 428,373.60769515458674" stroke="#ffd700" stroke-width="2.5" fill="none" stroke-linecap="round"/><path d="M416,332.0384757729337 Q458,342.43078061834694 446,300.8615612366939" stroke="#ffd700" stroke-width="2.5" fill="none" stroke-linecap="round"/><path d="M470,300.8615612366939 Q458,342.43078061834694 488,311.25386608210715" stroke="#00e676" stroke-width="2.5" fill="none" stroke-linecap="round"/><path d="M488,311.25386608210715 Q530,300.8615612366939 572,311.25386608210715" stroke="#00e676" stroke-width="2.5" fill="none" stroke-linecap="round"/><path d="M572,311.25386608210715 Q602,342.43078061834694 590,384" stroke="#00e676" stroke-width="2.5" fill="none" stroke-linecap="round"/><path d="M590,384 Q602,425.56921938165306 560,415.1769145362398" stroke="#00e676" stroke-width="2.5" fill="none" stroke-linecap="round"/><path d="M560,415.1769145362398 Q530,384 542,425.56921938165306" stroke="#00e676" stroke-width="2.5" fill="none" stroke-linecap="round"/><path d="M488,394.39230484541326 Q530,384 500,415.1769145362398" stroke="#ffd700" stroke-width="2.5" fill="none" stroke-linecap="round"/><path d="M560,332.0384757729337 Q530,300.8615612366939 488,290.4692563912806" stroke="#ffd700" stroke-width="2.5" fill="none" stroke-linecap="round"/><path d="M560,332.0384757729337 Q602,342.43078061834694 644,332.0384757729337" stroke="#ffd700" stroke-width="2.5" fill="none" stroke-linecap="round"/><path d="M542,342.43078061834694 Q530,300.8615612366939 518,342.43078061834694" stroke="#ffd700" stroke-width="2.5" fill="none" stroke-linecap="round"/><path d="M518,342.43078061834694 Q530,384 542,342.43078061834694" stroke="#ffd700" stroke-width="2.5" fill="none" stroke-linecap="round"/><path d="M500,269.6846467004541 Q530,300.8615612366939 518,259.29234185504083" stroke="#ffd700" stroke-width="2.5" fill="none" stroke-linecap="round"/><path d="M560,269.6846467004541 Q530,300.8615612366939 572,290.4692563912806" stroke="#ffd700" stroke-width="2.5" fill="none" stroke-linecap="round"/><path d="M572,394.39230484541326 Q530,384 518,425.56921938165306" stroke="#ffd700" stroke-width="2.5" fill="none" stroke-linecap="round"/><path d="M572,394.39230484541326 Q602,425.56921938165306 632,456.74613391789285" stroke="#ffd700" stroke-width="2.5" fill="none" stroke-linecap="round"/><path d="M560,352.8230854637602 Q530,384 572,373.60769515458674" stroke="#ffd700" stroke-width="2.5" fill="none" stroke-linecap="round"/><path d="M572,373.60769515458674 Q602,342.43078061834694 560,352.8230854637602" stroke="#ffd700" stroke-width="2.5" fill="none" stroke-linecap="round"/><path d="M560,435.9615242270663 Q602,425.56921938165306 572,456.74613391789285" stroke="#ffd700" stroke-width="2.5" fill="none" stroke-linecap="round"/><path d="M644,352.8230854637602 Q602,342.43078061834694 632,311.25386608210715" stroke="#ffd700" stroke-width="2.5" fill="none" stroke-linecap="round"/><path d="M632,373.60769515458674 Q602,342.43078061834694 614,300.8615612366939" stroke="#ffd700" stroke-width="2.5" fill="none" stroke-linecap="round"/><path d="M614,384 Q602,342.43078061834694 590,300.8615612366939" stroke="#ffd700" stroke-width="2.5" fill="none" stroke-linecap="round"/><path d="M614,384 Q602,425.56921938165306 644,415.1769145362398" stroke="#ffd700" stroke-width="2.5" fill="none" stroke-linecap="round"/><path d="M644,435.9615242270663 Q602,425.56921938165306 632,394.39230484541326" stroke="#ffd700" stroke-width="2.5" fill="none" stroke-linecap="round"/><path d="M614,467.1384387633061 Q602,425.56921938165306 590,467.1384387633061" stroke="#ffd700" stroke-width="2.5" fill="none" stroke-linecap="round"/><circle cx="542" cy="425.56921938165306" r="6.5" fill="#00e676"/><circle cx="500" cy="352.8230854637602" r="6.5" fill="#ff6b6b"/></svg>